<svg width="20" height="21" viewBox="0 0 20 21" fill="none" xmlns="http://www.w3.org/2000/svg">
<path fill-rule="evenodd" clip-rule="evenodd" d="M8.16947 13.2105C8.68987 13.5633 9.3241 13.7766 9.99898 13.7766C11.7878 13.7766 13.2433 12.308 13.2433 10.5031C13.2433 9.82215 13.0319 9.18221 12.6823 8.65714L11.796 9.55141C11.9423 9.83035 12.0236 10.1585 12.0236 10.5031C12.0236 11.6271 11.113 12.546 9.99898 12.546C9.65748 12.546 9.33223 12.4639 9.05577 12.3162L8.16947 13.2105ZM15.3574 5.95795C16.5364 7.04091 17.5366 8.50126 18.2846 10.257C18.3497 10.4129 18.3497 10.5933 18.2846 10.741C16.5446 14.8267 13.4466 17.2716 9.99898 17.2716H9.99085C8.42154 17.2716 6.91728 16.7547 5.5919 15.8112L4.01446 17.4029C3.89249 17.5259 3.738 17.5834 3.5835 17.5834C3.42901 17.5834 3.26639 17.5259 3.15255 17.4029C2.94927 17.1978 2.91675 16.8696 3.07937 16.6317L3.10377 16.5988L15.1297 4.46478C15.146 4.44837 15.1623 4.43196 15.1704 4.41555L15.1704 4.41555C15.1867 4.39914 15.2029 4.38273 15.2111 4.36633L15.9754 3.59513C16.2193 3.35721 16.6015 3.35721 16.8373 3.59513C17.0812 3.83305 17.0812 4.22686 16.8373 4.46478L15.3574 5.95795ZM6.74872 10.5063C6.74872 10.7196 6.77311 10.9329 6.80564 11.1298L3.79711 14.1654C2.98399 13.2137 2.27658 12.0651 1.71553 10.7442C1.65049 10.5965 1.65049 10.4161 1.71553 10.2602C3.4556 6.17446 6.55357 3.7378 9.99305 3.7378H10.0012C11.1639 3.7378 12.2942 4.01674 13.335 4.54182L10.6191 7.28203C10.424 7.24921 10.2126 7.2246 10.0012 7.2246C8.20419 7.2246 6.74872 8.69316 6.74872 10.5063Z" fill="#9E9E9E"/>
</svg>
