<svg width="20" height="21" viewBox="0 0 20 21" fill="none" xmlns="http://www.w3.org/2000/svg">
<path fill-rule="evenodd" clip-rule="evenodd" d="M14.6023 6.66336V7.94114C16.0376 8.38915 17.0834 9.68847 17.0834 11.2404V15.3544C17.0834 17.2757 15.4906 18.8334 13.5269 18.8334H6.47408C4.50955 18.8334 2.91675 17.2757 2.91675 15.3544V11.2404C2.91675 9.68847 3.96337 8.38915 5.39782 7.94114V6.66336C5.40629 4.17901 7.46397 2.16669 9.98738 2.16669C12.5447 2.16669 14.6023 4.17901 14.6023 6.66336ZM10.0043 3.61589C11.7233 3.61589 13.1205 4.98228 13.1205 6.66336V7.76144H6.87969V6.6468C6.88816 4.974 8.28535 3.61589 10.0043 3.61589ZM10.741 14.2125C10.741 14.6182 10.4108 14.9412 9.99585 14.9412C9.58939 14.9412 9.25915 14.6182 9.25915 14.2125V12.374C9.25915 11.9766 9.58939 11.6536 9.99585 11.6536C10.4108 11.6536 10.741 11.9766 10.741 12.374V14.2125Z" fill="#9E9E9E"/>
</svg>
