<svg width="18" height="18" viewBox="0 0 18 18" fill="none" xmlns="http://www.w3.org/2000/svg">
<path fill-rule="evenodd" clip-rule="evenodd" d="M5.39175 0.666504H12.6167C15.4417 0.666504 17.3334 2.64984 17.3334 5.59984V12.409C17.3334 15.3498 15.4417 17.3332 12.6167 17.3332H5.39175C2.56675 17.3332 0.666748 15.3498 0.666748 12.409V5.59984C0.666748 2.64984 2.56675 0.666504 5.39175 0.666504ZM8.52508 11.4915L12.4834 7.53317C12.7667 7.24984 12.7667 6.7915 12.4834 6.49984C12.2001 6.2165 11.7334 6.2165 11.4501 6.49984L8.00841 9.9415L6.55008 8.48317C6.26675 8.19984 5.80008 8.19984 5.51675 8.48317C5.23341 8.7665 5.23341 9.22484 5.51675 9.5165L7.50008 11.4915C7.64175 11.6332 7.82508 11.6998 8.00841 11.6998C8.20008 11.6998 8.38341 11.6332 8.52508 11.4915Z" fill="white"/>
</svg>
